<svg xmlns="http://www.w3.org/2000/svg" xmlns:xlink="http://www.w3.org/1999/xlink" version="1.1" id="Layer_1" x="0px" y="0px" width="100px" height="88.889px" viewBox="0 0 100 88.889" enable-background="new 0 0 100 88.889" xml:space="preserve">
<path d="M45.52,15.663c-0.375-1.384-1.618-1.739-2.829-1.015c-2.937,1.758-1.162,12.341-3.803,14.518  c-2.54,2.094-9.205,2.103-12.869,2.01c-2.794-0.071-7.914-0.297-11.178,0.146c-5.886,0.8-6.577,21.587-5.868,23.299  c1.042,2.519,4.032,2.07,4.474,0.836c1.237-3.449,0.417-13.45,2.66-15.69c1.995-1.994,2.047-1.031,2.047,1.469  c0,2.619,0,11.378,0,11.378l-1.071,9.145c0,0-1.135,18.218-2.719,24.061c-0.268,0.99-1.36,3.068,2.719,3.068  c2.787,0,3.692-5.63,3.692-5.63s1.64-21.226,5.616-20.139c3.975,1.089,2.311,16.492,2.311,22.02c0,2.243,0.694,4.616,3.06,3.128  c2.93-1.844,2.583-9.651,2.583-9.651l0.528-26.001c0,0,0.959-10.211,2.622-13.111c1.153-2.01,3.898-4.487,5.41-6.552  C45.07,29.994,46.497,19.268,45.52,15.663z"/>
<path d="M27.332,18.607c-2.848,0-5.166,2.024-5.166,4.511s2.317,4.511,5.166,4.511c2.849,0,5.167-2.024,5.167-4.511  S30.181,18.607,27.332,18.607z"/>
<path d="M91.378,19.119c-0.611-0.461-1.482-0.342-1.946,0.268c-0.219,0.287-0.756,0.584-1.273,0.872  c-0.624,0.347-1.332,0.739-1.899,1.318c-0.203,0.208-0.382,0.417-0.563,0.625c-0.355-0.33-0.714-0.647-1.07-0.956  c-0.78-0.674-1.516-1.31-2.117-2.062c-0.48-0.601-1.354-0.699-1.953-0.216c-0.599,0.479-0.694,1.352-0.216,1.952  c0.761,0.951,1.629,1.701,2.47,2.427c0.268,0.232,0.529,0.461,0.784,0.69c-0.679,0.445-1.357,0.89-2.04,1.329  c-0.645,0.414-1.289,0.829-1.932,1.249s-0.822,1.28-0.401,1.922c0.266,0.408,0.711,0.629,1.164,0.629  c0.26,0,0.523-0.073,0.758-0.227c0.636-0.417,1.276-0.827,1.914-1.238c0.795-0.511,1.587-1.025,2.376-1.546  c0.062,0.104,0.13,0.21,0.188,0.313c0.259,0.461,0.553,0.985,1.047,1.485c0.139,0.14,0.269,0.26,0.391,0.374  c0.297,0.277,0.445,0.417,0.611,0.722c0.253,0.462,0.729,0.725,1.223,0.725c0.224,0,0.45-0.055,0.662-0.17  c0.674-0.366,0.922-1.209,0.556-1.884c-0.383-0.7-0.793-1.085-1.157-1.423c-0.099-0.092-0.203-0.19-0.313-0.301  c-0.228-0.229-0.391-0.519-0.597-0.887c-0.148-0.267-0.305-0.542-0.49-0.815c0.026-0.031,0.057-0.065,0.082-0.095  c0.194-0.225,0.39-0.455,0.612-0.681c0.282-0.289,0.757-0.552,1.26-0.831c0.733-0.407,1.566-0.868,2.139-1.623  C92.108,20.455,91.989,19.583,91.378,19.119z"/>
<path d="M0,1.389V50h5.993c0.15-5.575,1.247-13.574,3.602-17.674c1.279-2.226,2.917-3.49,4.872-3.756  c1.449-0.195,3.31-0.292,5.69-0.292c0.535,0,1.064,0.007,1.585,0.013c-1.453-1.322-2.354-3.152-2.354-5.173  c0-4.019,3.563-7.289,7.943-7.289s7.944,3.27,7.944,7.289c0,1.965-0.855,3.748-2.238,5.061c2.644-0.316,3.669-0.849,4.019-1.104  c0.469-0.749,0.695-3.559,0.831-5.252c0.327-4.072,0.636-7.917,3.378-9.56c0.832-0.496,1.741-0.759,2.631-0.759  c2.049,0,3.739,1.345,4.305,3.432c1.164,4.292-0.353,15.965-3.052,19.656c-0.728,0.996-1.659,2.02-2.559,3.011  c-1.067,1.174-2.169,2.387-2.684,3.284c-0.673,1.173-1.441,5.187-1.945,9.113h7.872v-4.167h9.722V50h4.166v-4.167h9.723V50H100V0  L0,1.389z M47.324,9.132c-1.174,0.121-2.142,0.54-2.292,0.774L42.46,8.859c0.777-1.95,3.7-2.399,4.577-2.492l0.517,2.74  L47.324,9.132z M55.403,9.206c-0.681-0.152-1.364-0.243-2.031-0.27c-0.544-0.022-1.091-0.033-1.638-0.033h-0.173V6.125h0.173  c0.585,0,1.169,0.011,1.751,0.035c0.832,0.034,1.681,0.146,2.523,0.335L55.403,9.206z M61.976,12.776  c-0.906-0.872-1.933-1.625-3.052-2.235l1.329-2.439c1.337,0.73,2.566,1.629,3.649,2.675L61.976,12.776z M66.592,19.334  c-0.485-0.724-0.95-1.466-1.413-2.203c-0.279-0.448-0.559-0.894-0.841-1.333l2.336-1.502c0.287,0.449,0.573,0.904,0.859,1.36  c0.448,0.713,0.896,1.431,1.366,2.132L66.592,19.334z M73.109,25.529c-0.355-0.16-0.694-0.335-1.015-0.527  c-0.979-0.592-1.882-1.312-2.759-2.204l1.981-1.948c0.712,0.724,1.435,1.303,2.212,1.772c0.226,0.136,0.464,0.259,0.714,0.371  L73.109,25.529z M95.835,24.315c-0.128,3.471-1.321,5.35-3.687,7.874c-1.427,1.522-2.341,1.946-4.446,1.845  c-1.668-0.08-3.44-0.282-5.019-0.842c-2.877-1.021-4.799-3.126-6.042-5.877c-0.843-1.86-0.623-4.91,0.178-6.738  c0.551-1.256,1.332-2.591,2.395-3.47c1.46-1.207,2.99-1.481,4.812-1.481c3.369,0,6.842,0.172,9.604,2.393  C95.645,19.637,95.926,21.88,95.835,24.315z"/>
<path d="M98.611,52.777H37.698l-0.057,2.778h60.969c0.768,0,1.389-0.621,1.389-1.389C100,53.398,99.378,52.777,98.611,52.777z"/>
<path d="M6.052,52.777H1.389C0.622,52.777,0,53.398,0,54.167c0,0.768,0.622,1.389,1.389,1.389h5.03  C6.229,55.013,6.105,54.043,6.052,52.777z"/>
</svg>