<svg xmlns="http://www.w3.org/2000/svg" xmlns:xlink="http://www.w3.org/1999/xlink" version="1.1" id="Layer_1" x="0px" y="0px" width="99.21px" height="99.21px" viewBox="0 0 99.21 99.21" enable-background="new 0 0 99.21 99.21" xml:space="preserve">
<path d="M46.857,18.462c-17.203,0-31.199,13.995-31.199,31.198s13.996,31.198,31.199,31.198c17.203,0,31.199-13.995,31.199-31.198  S64.06,18.462,46.857,18.462z M46.857,74.819c-13.874,0-25.16-11.285-25.16-25.159c0-13.873,11.287-25.16,25.16-25.16  s25.161,11.287,25.161,25.16C72.018,63.534,60.73,74.819,46.857,74.819z"/>
<path fill="none" d="M25.794,25.673c-0.234,0.242-0.485,0.473-0.742,0.697v5.341h8.722v-6.039H25.794z"/>
<rect id="_x3C_Slice_x3E__1_" x="30.419" y="35.738" fill="none" width="2.013" height="1.341"/>
<g>
	<path d="M80.782,42.622c0.557,2.172,0.478,4.606,0.309,7.079c8.186,5.227,9.592,8.382,9.534,8.899   c-0.012,0.019-1.567,1.871-10.53,1.216c-4.623-0.339-10.14-1.286-16.094-2.726c0,0.019,0.002,0.035,0.002,0.054   c0,2.044-0.541,3.961-1.479,5.628c6.317,1.53,12.195,2.538,17.142,2.901c9.635,0.704,15.026-0.963,16.486-5.099   C98.181,54.833,90.748,48.331,80.782,42.622z"/>
	<path d="M43.045,50.566c-9.452-3.579-18-7.693-24.392-11.762c-8.274-5.265-9.69-8.443-9.632-8.964   c0.012-0.019,1.323-2,10.275-1.348c1.199-2.211,3.12-3.993,5.104-5.4c-1.258-0.149-3.089-0.227-4.417-0.324   c-9.636-0.705-15.03,0.962-16.49,5.098c-1.559,4.415,2.131,9.459,11.281,15.425c6.815,4.442,16.022,8.919,26.248,12.787   C41.211,54.04,41.932,52.158,43.045,50.566z"/>
</g>
<circle cx="52.309" cy="57.291" r="7.8"/>
</svg>