<svg xmlns="http://www.w3.org/2000/svg" xmlns:xlink="http://www.w3.org/1999/xlink" version="1.1" x="0px" y="0px" width="100px" height="100px" viewBox="0 0 100 100" enable-background="new 0 0 100 100" xml:space="preserve">
<g id="Captions">
</g>
<g id="Your_Icon">
	<g>
		<path d="M78.58,62.084c-2.116-1.885-4.551-3.546-7.299-4.922c-1.385-0.694-1.794-1.38-1.642-2.584    c0.913-7.191,0.96-14.373-0.998-21.502c-2.425-8.829-7.811-16.605-16.664-23.825c-0.835-0.658-2.355-0.75-3.588,0.249    c-3.984,3.23-7.389,6.748-10.153,10.583c-4.907,6.814-7.296,14.102-7.907,21.722c-0.393,4.884-0.055,9.753,0.554,14.619    c0.032,0.25-0.128,0.606-0.38,0.769c-2.321,1.508-4.771,2.915-7.006,4.483c-2.726,1.912-4.102,4.295-4.177,7.059    c-0.058,2.089,0.26,4.144,0.907,6.173c1.598,5.011,4.307,9.73,7.368,14.353c0.228,0.344,0.583,0.697,1.011,0.907    c1.339,0.664,2.807,0.311,3.632-0.854c2.126-3.003,4.233-6.012,6.328-9.024c0.265-0.383,0.569-0.532,1.19-0.532    c2.748,0.007,5.495-0.003,8.243-0.001V88c0,1.381,1.119,2.5,2.5,2.5S53,89.381,53,88v-8.245c2.841-0.002,5.683,0.007,8.523-0.001    c0.623-0.003,0.912,0.156,1.18,0.541c1.918,2.757,3.858,5.506,5.828,8.242c0.286,0.396,0.68,0.824,1.185,1.051    c1.415,0.641,2.855,0.24,3.608-1.013c1.664-2.77,3.389-5.525,4.849-8.351c1.735-3.354,3.06-6.802,3.313-10.41    C81.682,67.013,81.135,64.36,78.58,62.084z M34.775,78.004c-1.526,2.225-3.09,4.439-4.749,6.81    c-2.707-4.636-5.212-9.155-5.812-14.069c-0.219-1.782-0.243-3.58,1.145-5.198c1.116-1.305,4.225-3.557,6.207-4.47    c0.243,1.177,0.483,2.323,0.717,3.47c0.862,4.232,1.726,8.466,2.574,12.699C34.906,77.491,34.922,77.79,34.775,78.004z     M62.909,66.756c-0.568,3.085-1.12,6.17-1.682,9.255c-0.016,0.087-0.045,0.173-0.078,0.292c-2.714,0.001-5.431,0.003-8.149,0.004    V59c0-1.381-1.119-2.5-2.5-2.5S48,57.619,48,59v17.31c-2.802,0.002-5.604,0.004-8.431,0.006c-0.518-2.52-1.077-4.953-1.51-7.397    c-0.958-5.426-2.076-10.842-2.72-16.286c-0.903-7.65-0.439-15.262,2.596-22.704c2.282-5.6,5.877-10.715,10.866-15.323    c0.452-0.418,0.891-0.841,1.34-1.261c0.035-0.032,0.098-0.047,0.255-0.12c0.797,0.729,1.64,1.448,2.404,2.206    c4.129,4.098,7.307,8.543,9.387,13.382c2.154,5.014,3.085,10.159,3.22,15.391C65.604,51.78,64.287,59.27,62.909,66.756z     M76.662,69.697c-0.237,3.359-1.608,6.539-3.157,9.681c-0.776,1.57-1.687,3.109-2.641,4.855c-1.704-2.431-3.277-4.659-4.827-6.898    c-0.111-0.16-0.119-0.383-0.083-0.567c1.054-5.281,2.118-10.561,3.183-15.84c0.03-0.146,0.096-0.289,0.176-0.523    c2.436,1.449,4.761,2.868,6.339,4.79C76.798,66.589,76.772,68.151,76.662,69.697z"/>
		<path d="M50.534,31.449c-1.974,0.001-3.896,0.757-5.412,2.131c-1.471,1.333-2.367,3.312-2.461,5.429    c-0.095,2.148,0.644,4.237,2.023,5.73c1.568,1.696,3.642,2.63,5.836,2.63c1.982,0,3.915-0.783,5.443-2.204    c3.118-2.901,3.298-7.999,0.393-11.131C54.809,32.367,52.741,31.449,50.534,31.449z M48.138,36.784    c0.658-0.599,1.503-0.929,2.378-0.929c0.988,0,1.91,0.405,2.596,1.144c1.288,1.383,1.199,3.664-0.195,4.981    c-0.677,0.638-1.529,0.989-2.401,0.989c-0.941,0-1.838-0.401-2.524-1.13c-0.631-0.67-0.972-1.621-0.934-2.61    C47.093,38.268,47.487,37.376,48.138,36.784z"/>
	</g>
</g>
</svg>